<mxfile host="Electron" agent="Mozilla/5.0 (Windows NT 10.0; Win64; x64) AppleWebKit/537.36 (KHTML, like Gecko) draw.io/26.2.15 Chrome/134.0.6998.205 Electron/35.2.1 Safari/537.36" version="26.2.15">
  <diagram name="第 1 页" id="RDvZe_YNvRFU4XRC7ded">
    <mxGraphModel dx="2040" dy="828" grid="1" gridSize="10" guides="1" tooltips="1" connect="1" arrows="1" fold="1" page="1" pageScale="1" pageWidth="827" pageHeight="1169" math="0" shadow="0">
      <root>
        <mxCell id="0" />
        <mxCell id="1" parent="0" />
        <mxCell id="xRYO6olgGk7oRTQQ9M4I-1" value="" style="ellipse;fillColor=strokeColor;" vertex="1" parent="1">
          <mxGeometry x="76" y="20" width="14" height="14" as="geometry" />
        </mxCell>
        <mxCell id="xRYO6olgGk7oRTQQ9M4I-2" value="待创建" style="rounded=1;arcSize=20;strokeWidth=2" vertex="1" parent="1">
          <mxGeometry x="51" y="84" width="64" height="40" as="geometry" />
        </mxCell>
        <mxCell id="xRYO6olgGk7oRTQQ9M4I-3" value="进行中" style="rounded=1;arcSize=20;strokeWidth=2" vertex="1" parent="1">
          <mxGeometry x="51" y="197" width="64" height="40" as="geometry" />
        </mxCell>
        <mxCell id="xRYO6olgGk7oRTQQ9M4I-4" value="计费中" style="rounded=1;arcSize=20;strokeWidth=2" vertex="1" parent="1">
          <mxGeometry x="51" y="309" width="64" height="40" as="geometry" />
        </mxCell>
        <mxCell id="xRYO6olgGk7oRTQQ9M4I-5" value="已完成" style="rounded=1;arcSize=20;strokeWidth=2" vertex="1" parent="1">
          <mxGeometry x="51" y="535" width="64" height="40" as="geometry" />
        </mxCell>
        <mxCell id="xRYO6olgGk7oRTQQ9M4I-6" value="" style="ellipse;shape=endState;fillColor=strokeColor;" vertex="1" parent="1">
          <mxGeometry x="75" y="647" width="14" height="14" as="geometry" />
        </mxCell>
        <mxCell id="xRYO6olgGk7oRTQQ9M4I-7" value="争议处理" style="rounded=1;arcSize=20;strokeWidth=2" vertex="1" parent="1">
          <mxGeometry x="105" y="422" width="80" height="40" as="geometry" />
        </mxCell>
        <mxCell id="xRYO6olgGk7oRTQQ9M4I-8" value="" style="curved=1;startArrow=none;;exitX=0.46;exitY=1;entryX=0.49;entryY=0;rounded=0;" edge="1" parent="1" source="xRYO6olgGk7oRTQQ9M4I-1" target="xRYO6olgGk7oRTQQ9M4I-2">
          <mxGeometry relative="1" as="geometry">
            <Array as="points" />
          </mxGeometry>
        </mxCell>
        <mxCell id="xRYO6olgGk7oRTQQ9M4I-9" value="车辆驶入车位" style="curved=1;startArrow=none;;exitX=0.49;exitY=1;entryX=0.49;entryY=-0.01;rounded=0;" edge="1" parent="1" source="xRYO6olgGk7oRTQQ9M4I-2" target="xRYO6olgGk7oRTQQ9M4I-3">
          <mxGeometry relative="1" as="geometry">
            <Array as="points" />
          </mxGeometry>
        </mxCell>
        <mxCell id="xRYO6olgGk7oRTQQ9M4I-10" value="驶离车位检测" style="curved=1;startArrow=none;;exitX=0.49;exitY=0.99;entryX=0.49;entryY=0.01;rounded=0;" edge="1" parent="1" source="xRYO6olgGk7oRTQQ9M4I-3" target="xRYO6olgGk7oRTQQ9M4I-4">
          <mxGeometry relative="1" as="geometry">
            <Array as="points" />
          </mxGeometry>
        </mxCell>
        <mxCell id="xRYO6olgGk7oRTQQ9M4I-11" value="费用结算完成" style="curved=1;startArrow=none;;exitX=0.15;exitY=1.01;entryX=0.15;entryY=-0.01;rounded=0;" edge="1" parent="1" source="xRYO6olgGk7oRTQQ9M4I-4" target="xRYO6olgGk7oRTQQ9M4I-5">
          <mxGeometry relative="1" as="geometry">
            <Array as="points">
              <mxPoint x="20" y="386" />
              <mxPoint x="20" y="498" />
            </Array>
          </mxGeometry>
        </mxCell>
        <mxCell id="xRYO6olgGk7oRTQQ9M4I-12" value="数据归档" style="curved=1;startArrow=none;;exitX=0.49;exitY=0.99;entryX=0.54;entryY=0.02;rounded=0;" edge="1" parent="1" source="xRYO6olgGk7oRTQQ9M4I-5" target="xRYO6olgGk7oRTQQ9M4I-6">
          <mxGeometry relative="1" as="geometry">
            <Array as="points" />
          </mxGeometry>
        </mxCell>
        <mxCell id="xRYO6olgGk7oRTQQ9M4I-13" value="费用核对异常" style="curved=1;startArrow=none;;exitX=0.84;exitY=1.01;entryX=0.5;entryY=0;rounded=0;" edge="1" parent="1" source="xRYO6olgGk7oRTQQ9M4I-4" target="xRYO6olgGk7oRTQQ9M4I-7">
          <mxGeometry relative="1" as="geometry">
            <Array as="points">
              <mxPoint x="145" y="386" />
            </Array>
          </mxGeometry>
        </mxCell>
        <mxCell id="xRYO6olgGk7oRTQQ9M4I-14" value="人工修正费用" style="curved=1;startArrow=none;;exitX=0.5;exitY=1;entryX=0.84;entryY=-0.01;rounded=0;" edge="1" parent="1" source="xRYO6olgGk7oRTQQ9M4I-7" target="xRYO6olgGk7oRTQQ9M4I-5">
          <mxGeometry relative="1" as="geometry">
            <Array as="points">
              <mxPoint x="145" y="498" />
            </Array>
          </mxGeometry>
        </mxCell>
      </root>
    </mxGraphModel>
  </diagram>
</mxfile>
